<svg xmlns="http://www.w3.org/2000/svg" width="112" height="112" viewBox="0 0 112 112">
  <g id="ancient-scroll" transform="translate(0 0)">
    <path id="Path_15736" data-name="Path 15736" d="M100.188,83.369V35.8a2.19,2.19,0,0,0-.9-1.77l-5.4-3.926,4.252-2.657a2.187,2.187,0,0,0,.161-3.6l-3.946-2.99V19.469H98a2.187,2.187,0,0,0,2.188-2.188V12.906A12.921,12.921,0,0,0,87.281,0H12.688c-.022,0-.043,0-.064,0-.05,0-.1,0-.15,0A11.327,11.327,0,0,0,3.463,4.791,17.838,17.838,0,0,0,0,15.618c0,7.309,4.784,13.257,10.665,13.257h12.1V63.547a2.187,2.187,0,0,0,1,1.835l4.289,2.781L23.5,72.234a2.188,2.188,0,0,0-.73,1.631V92.823a2.022,2.022,0,0,1,0,.693c0,5.565,1.437,10.25,4.155,13.546A13.4,13.4,0,0,0,37.436,112H97.563a14.436,14.436,0,0,0,2.625-28.632ZM17.954,24.5a8.759,8.759,0,0,0,1.009-4.121c0-5.043-3.267-8.566-7.945-8.566a2.188,2.188,0,1,0,0,4.375c2.235,0,3.57,1.567,3.57,4.191A3.937,3.937,0,0,1,10.665,24.5c-3.409,0-6.29-4.067-6.29-8.882,0-6.2,3.633-11.243,8.1-11.243a9.12,9.12,0,0,1,7.185,2.857c2.063,2.334,3.108,6.12,3.108,11.253V24.5ZM30.3,104.278c-2.064-2.5-3.156-6.225-3.156-10.762a2.022,2.022,0,0,1,0-.693V74.843L33.1,69.516a2.188,2.188,0,0,0-.267-3.467l-5.694-3.691V18.484c0-6.206-1.4-10.952-4.17-14.109H87.281a8.541,8.541,0,0,1,8.531,8.531v2.188H92.166a2.188,2.188,0,0,0-2.187,2.188v4.666a2.188,2.188,0,0,0,.867,1.744l2.282,1.729L88.82,28.114a2.187,2.187,0,0,0-.127,3.624l7.12,5.178V83.125H40.2a2.175,2.175,0,0,0-.318.026c-.21-.015-.422-.026-.637-.026a8.31,8.31,0,0,0-8.3,8.5c0,5.044,3.267,8.566,7.945,8.566a2.188,2.188,0,0,0,0-4.375c-2.235,0-3.57-1.567-3.57-4.191A3.937,3.937,0,0,1,39.244,87.5c3.409,0,6.29,4.067,6.29,8.882,0,6.2-3.632,11.243-8.1,11.243a8.974,8.974,0,0,1-7.138-3.347Zm67.265,3.347H46.111c.113-.137.226-.273.335-.416A17.682,17.682,0,0,0,49.9,97.125H84a2.188,2.188,0,1,0,0-4.375H49.5a14.392,14.392,0,0,0-2.345-5.25H97.563a10.063,10.063,0,1,1,0,20.125Zm0,0" transform="translate(0)" fill="#965141"/>
    <path id="Path_15737" data-name="Path 15737" d="M181.546,82.375A2.188,2.188,0,1,0,180,81.734,2.209,2.209,0,0,0,181.546,82.375Zm0,0" transform="translate(-140.124 -60.937)" fill="#965141"/>
    <path id="Path_15738" data-name="Path 15738" d="M224.187,82.375h31.578a2.188,2.188,0,1,0,0-4.375H224.187a2.188,2.188,0,0,0,0,4.375Zm0,0" transform="translate(-173.437 -60.937)" fill="#965141"/>
    <path id="Path_15739" data-name="Path 15739" d="M181.542,138.375h40.906a2.188,2.188,0,1,0,0-4.375H181.542a2.188,2.188,0,0,0,0,4.375Zm0,0" transform="translate(-140.121 -104.687)" fill="#965141"/>
    <path id="Path_15740" data-name="Path 15740" d="M181.542,194.375h40.906a2.188,2.188,0,1,0,0-4.375H181.542a2.188,2.188,0,0,0,0,4.375Zm0,0" transform="translate(-140.121 -148.437)" fill="#965141"/>
    <path id="Path_15741" data-name="Path 15741" d="M181.542,250.375h40.906a2.188,2.188,0,1,0,0-4.375H181.542a2.188,2.188,0,0,0,0,4.375Zm0,0" transform="translate(-140.121 -192.187)" fill="#965141"/>
    <path id="Path_15742" data-name="Path 15742" d="M181.542,306.375h40.906a2.188,2.188,0,1,0,0-4.375H181.542a2.188,2.188,0,0,0,0,4.375Zm0,0" transform="translate(-140.121 -235.937)" fill="#965141"/>
    <path id="Path_15743" data-name="Path 15743" d="M415.059,424a2.19,2.19,0,1,0,1.546.641A2.2,2.2,0,0,0,415.059,424Zm0,0" transform="translate(-322.555 -331.25)" fill="#965141"/>
  </g>
</svg>
