<svg xmlns="http://www.w3.org/2000/svg" width="124" height="124" viewBox="0 0 124 124">
  <g id="burj-al-arab_1_" data-name="burj-al-arab (1)" transform="translate(-2 -2.1)">
    <path id="Path_15756" data-name="Path 15756" d="M3,70.1H123.457v3.543H3Z" transform="translate(0.771 52.457)" fill="#965141"/>
    <path id="Path_15757" data-name="Path 15757" d="M68.229,117.614H29.771A1.771,1.771,0,0,1,28,115.843v-74.4h3.543v72.629H66.816c7.461-33.461,3.429-60.854-11.691-79.293A59.268,59.268,0,0,0,31.543,17.367v16.99H28V14.871a1.771,1.771,0,0,1,2.243-1.708c.6.165,59.52,17.456,39.712,103.078a1.771,1.771,0,0,1-1.725,1.373Z" transform="translate(20.057 8.486)" fill="#965141"/>
    <path id="Path_15758" data-name="Path 15758" d="M57.184,102.573H34.771A1.771,1.771,0,0,1,33,100.8V22.887a1.771,1.771,0,0,1,2.774-1.46c12.614,8.655,32.4,30.52,23.151,79.7A1.771,1.771,0,0,1,57.184,102.573ZM36.543,99.03H55.706C63.313,56.339,48.181,35.67,36.543,26.4Z" transform="translate(23.914 14.67)" fill="#965141"/>
    <path id="Path_15759" data-name="Path 15759" d="M28,3.1h3.543V22.586H28Z" transform="translate(20.057 0.771)" fill="#965141"/>
    <path id="Path_15760" data-name="Path 15760" d="M34,29.91H48.88v3.543H34Z" transform="translate(24.686 21.453)" fill="#965141"/>
    <path id="Path_15761" data-name="Path 15761" d="M34,38.71H55.753v3.543H34Z" transform="translate(24.686 28.242)" fill="#965141"/>
    <path id="Path_15762" data-name="Path 15762" d="M34,47.51H58.5v3.543H34Z" transform="translate(24.686 35.031)" fill="#965141"/>
    <path id="Path_15763" data-name="Path 15763" d="M34,56.3H58.481v3.543H34Z" transform="translate(24.686 41.811)" fill="#965141"/>
    <path id="Path_15764" data-name="Path 15764" d="M37.714,34.729H21.771A1.771,1.771,0,0,1,20,32.957V25.871A1.771,1.771,0,0,1,21.771,24.1H37.714a1.771,1.771,0,0,1,1.771,1.771v7.086A1.771,1.771,0,0,1,37.714,34.729ZM23.543,31.186h12.4V27.643h-12.4Z" transform="translate(13.886 16.971)" fill="#965141"/>
    <path id="Path_15765" data-name="Path 15765" d="M32.857,105.271H25.771A1.771,1.771,0,0,1,24,103.5V29.1h3.543v72.629h3.543V29.1h3.543v74.4A1.771,1.771,0,0,1,32.857,105.271Z" transform="translate(16.971 20.829)" fill="#965141"/>
    <path id="Path_15766" data-name="Path 15766" d="M34.629,29.713H31.086v-7.05H27.543v7.05H24V20.891a1.771,1.771,0,0,1,1.771-1.771h7.086a1.771,1.771,0,0,1,1.771,1.771Z" transform="translate(16.971 13.13)" fill="#965141"/>
    <path id="Path_15767" data-name="Path 15767" d="M81.886,35.9h-24.8a7.086,7.086,0,0,1,0-14.171h1.771a10.629,10.629,0,1,1,21.257,0h1.771a7.086,7.086,0,0,1,0,14.171Zm-24.8-10.629a3.543,3.543,0,1,0,0,7.086h24.8a3.543,3.543,0,1,0,0-7.086h-3.72a1.771,1.771,0,0,1-1.736-2.126,7.086,7.086,0,1,0-13.884,0,1.771,1.771,0,0,1-1.736,2.126Z" transform="translate(37.029 6.943)" fill="#965141"/>
    <path id="Path_15768" data-name="Path 15768" d="M33.886,26.9H9.086a7.086,7.086,0,0,1,0-14.171h1.771a10.629,10.629,0,0,1,21.257,0h1.771a7.086,7.086,0,0,1,0,14.171ZM9.086,16.271a3.543,3.543,0,0,0,0,7.086h24.8a3.543,3.543,0,1,0,0-7.086h-3.72a1.771,1.771,0,0,1-1.736-2.126,7.086,7.086,0,1,0-13.884,0,1.771,1.771,0,0,1-1.736,2.126Z" transform="translate(0 0)" fill="#965141"/>
  </g>
</svg>
