<svg xmlns="http://www.w3.org/2000/svg" width="144.292" height="105.927" viewBox="0 0 144.292 105.927">
  <g id="team" transform="translate(0 -68.066)">
    <g id="Group_123" data-name="Group 123" transform="translate(110.685 113.265)">
      <g id="Group_122" data-name="Group 122" transform="translate(0 0)">
        <path id="Path_15772" data-name="Path 15772" d="M409.37,230.932c-4.91-2.455-14.116-2.483-14.5-2.483a2.114,2.114,0,1,0,0,4.227c2.375,0,9.272.366,12.615,2.037a2.114,2.114,0,0,0,1.89-3.781Z" transform="translate(-392.751 -228.449)" fill="#965141"/>
      </g>
    </g>
    <g id="Group_125" data-name="Group 125" transform="translate(0 68.066)">
      <g id="Group_124" data-name="Group 124">
        <path id="Path_15773" data-name="Path 15773" d="M137.842,145.841l-8.729-2.494a.886.886,0,0,1-.64-.849v-2.914a15.885,15.885,0,0,0,2.021-1.657,15.549,15.549,0,0,0,4.759-11.249v-4.021l.844-1.688a13.484,13.484,0,0,0,1.416-6V104.079a2.114,2.114,0,0,0-2.114-2.114h-20.34a13.429,13.429,0,0,0-13.414,13.414v.126a11.211,11.211,0,0,0,1.177,4.988l1.082,2.165v3.452a16.492,16.492,0,0,0,6.78,13.334V142.5c0,.471,0,.666-1.745,1.165l-4.259,1.217L92.36,140.4a2.111,2.111,0,0,0-.576-1.618l-3.937-4.137V127.7c.416-.343.827-.7,1.224-1.068A24.807,24.807,0,0,0,96.886,108.6v-5.546a24.432,24.432,0,0,0,2.26-10.274V70.18a2.114,2.114,0,0,0-2.114-2.114H65.393A20.216,20.216,0,0,0,45.2,88.259v4.52a24.432,24.432,0,0,0,2.26,10.274v4.771a25.827,25.827,0,0,0,9.04,19.712v7.108l-3.937,4.137a2.111,2.111,0,0,0-.576,1.618l-13,4.729a11.084,11.084,0,0,0-2.613,1.369l-2.042-1.021c6.079-2.646,8-6.367,8.1-6.552a2.113,2.113,0,0,0,0-1.89c-1.524-3.048-1.708-8.634-1.857-13.122-.049-1.494-.1-2.906-.185-4.163-.721-10.138-8.428-17.784-17.928-17.784S5.246,109.611,4.525,119.749c-.089,1.257-.136,2.669-.185,4.163-.148,4.488-.333,10.073-1.857,13.121a2.113,2.113,0,0,0,0,1.89c.092.185,2.014,3.9,8.105,6.548l-5.672,2.836A8.848,8.848,0,0,0,0,156.263v15.615a2.114,2.114,0,0,0,4.227,0V156.263a4.641,4.641,0,0,1,2.579-4.174l7.063-3.531,2.457,2.335a8.889,8.889,0,0,0,12.253,0l2.457-2.335,2.3,1.152a11.13,11.13,0,0,0-1.7,5.9v16.268a2.114,2.114,0,0,0,4.227,0V155.611a6.947,6.947,0,0,1,4.559-6.509l13.711-4.986,5.708,8.562a4.358,4.358,0,0,0,3.208,1.926q.219.022.436.021a4.357,4.357,0,0,0,3.088-1.281l3.482-3.482v22.017a2.114,2.114,0,0,0,4.227,0V149.862l3.482,3.482a4.355,4.355,0,0,0,3.088,1.281q.217,0,.436-.021a4.358,4.358,0,0,0,3.208-1.926l5.708-8.562,13.711,4.986a6.948,6.948,0,0,1,4.559,6.509v16.268a2.114,2.114,0,0,0,4.227,0V155.611a11.174,11.174,0,0,0-3.126-7.733l.522-.149a11.592,11.592,0,0,0,1.967-.71l5.4,5.4v19.464a2.114,2.114,0,0,0,4.227,0V152.415l5.359-5.359a5.028,5.028,0,0,0,.9.357l8.73,2.494a4.686,4.686,0,0,1,3.384,4.487v17.485a2.114,2.114,0,1,0,4.227,0V154.394A8.932,8.932,0,0,0,137.842,145.841ZM13.56,142.108a15.2,15.2,0,0,1-6.783-4.355,23.3,23.3,0,0,0,1.2-5.061,15.761,15.761,0,0,0,5.579,6.883Zm12.108,5.72a4.664,4.664,0,0,1-6.429,0l-1.966-1.868a4.373,4.373,0,0,0,.514-2.064v-2.253a15.717,15.717,0,0,0,9.332,0V143.9a4.373,4.373,0,0,0,.514,2.065Zm-3.214-9.7a11.459,11.459,0,0,1-11.446-11.446A2.1,2.1,0,0,0,8.548,124.6c.006-.182.012-.364.018-.544.047-1.453.092-2.826.176-4a15.692,15.692,0,0,1,4.273-9.855,13.133,13.133,0,0,1,18.877,0,15.692,15.692,0,0,1,4.273,9.855c.083,1.177.129,2.55.177,4l.013.377a18.992,18.992,0,0,0-10.44-7.629,26.527,26.527,0,0,0-8.039-1.274,2.114,2.114,0,0,0-1.463.646L12.6,120.127a2.114,2.114,0,0,0,3.043,2.934l3.173-3.291c2.733.134,11.525,1.156,14.944,8.685A11.419,11.419,0,0,1,22.454,138.125Zm8.892,3.99v-2.521a15.634,15.634,0,0,0,5.58-6.89,23.269,23.269,0,0,0,1.2,5.05A15.267,15.267,0,0,1,31.347,142.115Zm20.34-34.29v-5.244a2.114,2.114,0,0,0-.21-.919,20.274,20.274,0,0,1-2.05-8.882V88.26A15.984,15.984,0,0,1,65.393,72.294H94.919V92.78a20.274,20.274,0,0,1-2.05,8.882,2.114,2.114,0,0,0-.21.919V108.6a20.292,20.292,0,0,1-6.479,14.95,21.036,21.036,0,0,1-1.623,1.374l-.036.026a20.323,20.323,0,0,1-13.715,4.092C60.084,128.347,51.687,119.028,51.687,107.825Zm11.9,42.53a.133.133,0,0,1-.118.042.134.134,0,0,1-.107-.065l-6.573-9.86,2.115-2.223,9.972,6.816Zm8.585-8.157-11.446-7.824v-3.945a23.8,23.8,0,0,0,9.8,2.831q.836.054,1.663.054a24.483,24.483,0,0,0,11.424-2.8v3.861Zm8.81,8.135a.134.134,0,0,1-.107.065.13.13,0,0,1-.118-.042l-5.289-5.289,9.972-6.817,2.116,2.223Zm38.6-1.783-4.8-4.8a5.8,5.8,0,0,0,.131-1.256v-.892a14.821,14.821,0,0,0,4.186.739c.163.005.324.007.487.007a15.7,15.7,0,0,0,4.66-.7v.851a5.053,5.053,0,0,0,.153,1.232Zm7.971-13.655a11.36,11.36,0,0,1-8.324,3.226c-6.117-.183-11.093-5.571-11.093-12.009v-3.951a2.112,2.112,0,0,0-.223-.945L106.6,118.6a6.963,6.963,0,0,1-.731-3.1v-.126a9.2,9.2,0,0,1,9.186-9.186h18.226v8.779a9.235,9.235,0,0,1-.97,4.108l-1.067,2.134a2.113,2.113,0,0,0-.223.945v4.52A11.356,11.356,0,0,1,127.549,134.894Z" transform="translate(0 -68.066)" fill="#965141"/>
      </g>
    </g>
    <g id="Group_127" data-name="Group 127" transform="translate(131.025 156.205)">
      <g id="Group_126" data-name="Group 126" transform="translate(0 0)">
        <path id="Path_15774" data-name="Path 15774" d="M467.037,380.814a2.114,2.114,0,0,0-2.114,2.114v13.56a2.114,2.114,0,1,0,4.227,0v-13.56A2.114,2.114,0,0,0,467.037,380.814Z" transform="translate(-464.923 -380.814)" fill="#965141"/>
      </g>
    </g>
    <g id="Group_129" data-name="Group 129" transform="translate(9.04 158.999)">
      <g id="Group_128" data-name="Group 128">
        <path id="Path_15775" data-name="Path 15775" d="M34.191,390.728a2.114,2.114,0,0,0-2.114,2.114v10.766a2.114,2.114,0,0,0,4.227,0V392.842A2.114,2.114,0,0,0,34.191,390.728Z" transform="translate(-32.077 -390.728)" fill="#965141"/>
      </g>
    </g>
    <g id="Group_131" data-name="Group 131" transform="translate(54.239 87.268)">
      <g id="Group_130" data-name="Group 130">
        <path id="Path_15776" data-name="Path 15776" d="M227.708,142.479c-7.994-7.994-24.72-6.466-31.54-5.438a4.339,4.339,0,0,0-3.707,4.323v4.869a2.114,2.114,0,0,0,4.227,0v-4.87a.14.14,0,0,1,.11-.143,66.776,66.776,0,0,1,13.732-.671c6.591.439,11.365,2.093,14.189,4.918a2.114,2.114,0,0,0,2.989-2.989Z" transform="translate(-192.46 -136.203)" fill="#965141"/>
      </g>
    </g>
    <g id="Group_133" data-name="Group 133" transform="translate(45.199 160.725)">
      <g id="Group_132" data-name="Group 132" transform="translate(0 0)">
        <path id="Path_15777" data-name="Path 15777" d="M162.5,396.853a2.114,2.114,0,0,0-2.114,2.114v9.04a2.114,2.114,0,0,0,4.227,0v-9.04A2.114,2.114,0,0,0,162.5,396.853Z" transform="translate(-160.384 -396.853)" fill="#965141"/>
      </g>
    </g>
    <g id="Group_135" data-name="Group 135" transform="translate(94.919 160.725)">
      <g id="Group_134" data-name="Group 134" transform="translate(0 0)">
        <path id="Path_15778" data-name="Path 15778" d="M338.92,396.853a2.114,2.114,0,0,0-2.114,2.114v9.04a2.114,2.114,0,0,0,4.227,0v-9.04A2.114,2.114,0,0,0,338.92,396.853Z" transform="translate(-336.806 -396.853)" fill="#965141"/>
      </g>
    </g>
  </g>
</svg>
